<svg width="24" height="24" viewBox="0 0 24 24" fill="none" xmlns="http://www.w3.org/2000/svg">
<path d="M22.3594 5.60236H19.2422V3.02423C19.2422 2.11959 18.5062 1.38361 17.6016 1.38361H6.39844C5.4938 1.38361 4.75781 2.11959 4.75781 3.02423V9.30548H1.64062C0.735984 9.30548 0 10.0415 0 10.9461V18.3992C0 19.3039 0.735984 20.0399 1.64062 20.0399H3.42188V21.4434C3.42188 21.8908 3.67055 22.2926 4.07091 22.4922C4.23788 22.5754 4.41694 22.6164 4.59502 22.6164C4.84392 22.6164 5.09077 22.5362 5.29898 22.3793L8.40375 20.0398H12.8438C13.7484 20.0398 14.4844 19.3038 14.4844 18.3992V16.3367H15.5963L18.701 18.6762C18.9093 18.8332 19.156 18.9133 19.405 18.9133C19.583 18.9133 19.7622 18.8722 19.9291 18.7891C20.3295 18.5895 20.5781 18.1876 20.5781 17.7403V16.3367H22.3594C23.264 16.3367 24 15.6007 24 14.6961V7.24298C24 6.33834 23.264 5.60236 22.3594 5.60236ZM22.5938 14.6961C22.5938 14.8253 22.4886 14.9305 22.3594 14.9305H19.875C19.4867 14.9305 19.1719 15.2453 19.1719 15.6336V17.2702L16.2547 15.072C16.1327 14.9802 15.9842 14.9304 15.8315 14.9304H11.1562C11.027 14.9304 10.9219 14.8253 10.9219 14.6961V7.24293C10.9219 7.1137 11.027 7.00856 11.1562 7.00856H22.3594C22.4886 7.00856 22.5938 7.1137 22.5938 7.24293V14.6961ZM12.8438 18.6336H8.16848C8.01581 18.6336 7.86727 18.6833 7.74534 18.7752L4.82812 20.9734V19.3367C4.82812 18.9484 4.51331 18.6336 4.125 18.6336H1.64062C1.51139 18.6336 1.40625 18.5285 1.40625 18.3992V10.9461C1.40625 10.8169 1.51139 10.7117 1.64062 10.7117H9.51562V14.6961C9.51562 15.6007 10.2516 16.3367 11.1562 16.3367H13.0781V18.3992C13.0781 18.5284 12.973 18.6336 12.8438 18.6336ZM6.39844 2.78986H17.6016C17.7308 2.78986 17.8359 2.895 17.8359 3.02423V5.60236H11.1562C10.2516 5.60236 9.51562 6.33834 9.51562 7.24298V9.30548H6.16406V3.02423C6.16406 2.895 6.2692 2.78986 6.39844 2.78986Z" fill="black"/>
</svg>
