<svg width="24" height="24" viewBox="0 0 24 24" fill="none" xmlns="http://www.w3.org/2000/svg">
<path d="M9.51562 8.95401V7.59463C9.51562 6.30229 10.567 5.25088 11.8594 5.25088H18.5391V2.67276C18.5391 2.15498 18.1193 1.73526 17.6016 1.73526H6.39844C5.88066 1.73526 5.46094 2.15498 5.46094 2.67276V8.95401H9.51562Z" fill="black"/>
<path d="M11.8594 17.3915C10.567 17.3915 9.51562 16.3401 9.51562 15.0478V10.3603H0.9375C0.419719 10.3603 0 10.78 0 11.2978V18.7509C0 19.2687 0.419719 19.6884 0.9375 19.6884H3.42188V21.7951C3.42188 22.0728 3.64973 22.2647 3.89255 22.2647C3.98794 22.2647 4.08558 22.2351 4.17272 22.1695L7.46536 19.6884H12.1406C12.6584 19.6884 13.0781 19.2687 13.0781 18.7509V17.3915H11.8594V17.3915Z" fill="black"/>
<path d="M23.0625 6.65717H11.8594C11.3416 6.65717 10.9219 7.07688 10.9219 7.59467V15.0478C10.9219 15.5656 11.3416 15.9853 11.8594 15.9853H16.5346L19.8273 18.4664C19.9144 18.5321 20.0121 18.5616 20.1075 18.5616C20.3503 18.5616 20.5781 18.3697 20.5781 18.0921V15.9853H23.0625C23.5803 15.9853 24 15.5656 24 15.0478V7.59471C24 7.07689 23.5803 6.65717 23.0625 6.65717V6.65717Z" fill="black"/>
</svg>
