<svg width="24" height="24" viewBox="0 0 24 24" fill="none" xmlns="http://www.w3.org/2000/svg">
<g clip-path="url(#clip0)">
<path d="M10.3569 13.9036L14.3197 11.7726L10.3569 9.60425V13.9036Z" fill="black"/>
<path d="M23.8234 7.19659L23.8223 7.18561C23.802 6.99243 23.5997 5.27399 22.7644 4.40021C21.7988 3.37225 20.7042 3.24738 20.1778 3.1875C20.1342 3.18237 20.0943 3.17798 20.0586 3.17322L20.0167 3.16882C16.8438 2.93811 12.0522 2.90662 12.0042 2.90625H11.9958C11.9478 2.90662 7.15611 2.93811 3.9547 3.16882L3.91241 3.17322C3.87835 3.1778 3.84081 3.18201 3.79998 3.18677C3.2796 3.24683 2.19671 3.37189 1.22845 4.43683C0.432861 5.30164 0.20288 6.98309 0.17926 7.17206L0.176513 7.19659C0.169372 7.27698 0 9.19061 0 11.1118V12.9077C0 14.8288 0.169372 16.7424 0.176513 16.8228L0.177795 16.8351C0.19812 17.025 0.400268 18.7117 1.23175 19.5861C2.13958 20.5798 3.28747 20.7111 3.9049 20.7817C4.00249 20.7929 4.08672 20.8026 4.14385 20.8127L4.19933 20.8202C6.0313 20.9947 11.7751 21.0806 12.0187 21.084L12.026 21.0842L12.0331 21.084C12.0813 21.0839 16.8728 21.0524 20.0456 20.8215L20.0875 20.8173C20.1275 20.812 20.1725 20.8072 20.2219 20.8021C20.7396 20.7471 21.8164 20.6331 22.7715 19.5826C23.5671 18.7178 23.7971 17.0363 23.8207 16.8474L23.8234 16.8228C23.8306 16.7424 24 14.8288 24 12.9077V11.1118C24 9.19061 23.8306 7.27716 23.8234 7.19659V7.19659ZM15.6879 12.6337L10.3857 15.4849C10.2402 15.5632 10.082 15.6022 9.92411 15.6022C9.75181 15.6022 9.57988 15.5557 9.42479 15.4633C9.12779 15.2856 8.95054 14.9731 8.95054 14.6272V8.87476C8.95054 8.52722 9.12889 8.21411 9.42772 8.03687C9.72654 7.8598 10.0871 7.85339 10.3919 8.0202L15.6941 10.9215C16.0078 11.0931 16.2019 11.4219 16.2006 11.7795C16.1993 12.137 16.0028 12.4644 15.6879 12.6337V12.6337Z" fill="black"/>
</g>
<defs>
<clipPath id="clip0">
<rect width="24" height="24" fill="white"/>
</clipPath>
</defs>
</svg>
