<svg width="330" height="300" viewBox="0 0 330 300" fill="none" xmlns="http://www.w3.org/2000/svg">
<g clip-path="url(#clip0)">
<path d="M270.345 237.624C270.339 238.34 270.322 239.05 270.293 239.765C260.067 253.393 247.627 265.21 233.492 274.723C231.86 275.828 230.207 276.893 228.534 277.918C216.006 285.64 202.396 291.45 188.154 295.156C187.404 295.351 186.654 295.54 185.904 295.723C185.366 295.855 184.822 295.987 184.278 296.101C183.946 296.073 183.62 296.044 183.293 296.015C183.276 296.01 183.253 296.01 183.236 296.004C183.104 295.992 182.973 295.981 182.847 295.975C182.286 295.924 181.724 295.866 181.164 295.815L181.295 296.067L181.627 296.697H181.622C181.501 296.49 181.381 296.279 181.267 296.067C181.221 295.992 181.169 295.912 181.129 295.832C181.089 295.763 181.049 295.689 181.009 295.62C175.902 286.735 170.869 277.523 169.581 267.384C168.236 256.769 172.014 244.758 181.352 239.542C182.577 238.862 183.873 238.319 185.217 237.922C185.778 237.756 186.345 237.618 186.917 237.492C190.419 236.715 194.065 236.885 197.48 237.984C200.894 239.083 203.955 241.071 206.346 243.745C208.738 246.418 210.374 249.681 211.087 253.196C211.8 256.712 211.563 260.354 210.402 263.748C218.32 255.63 216.843 242.462 214.112 231.458C211.375 220.449 208.066 208.202 213.631 198.321C216.723 192.813 222.162 189.401 228.27 188.027C228.453 187.987 228.642 187.947 228.831 187.912C236.106 186.438 243.669 187.763 250.009 191.622C261.682 198.979 267.677 212.926 269.623 226.586C270.142 230.242 270.384 233.932 270.345 237.624V237.624Z" fill="#F2F2F2"/>
<path d="M191.148 244.5C195.456 253.259 196.831 263.171 195.07 272.771C193.517 280.98 189.784 288.619 184.261 294.887C183.946 295.248 183.625 295.597 183.299 295.941C183.826 295.907 184.358 295.861 184.885 295.815C185.223 295.786 185.566 295.758 185.904 295.723C185.366 295.855 184.822 295.987 184.278 296.101C183.946 296.073 183.62 296.044 183.293 296.015C183.276 296.01 183.253 296.01 183.236 296.004C183.104 295.992 182.973 295.981 182.847 295.975C182.286 295.924 181.724 295.866 181.164 295.815L181.295 296.067L181.627 296.697H181.622C181.501 296.491 181.381 296.279 181.267 296.067C181.221 295.992 181.169 295.912 181.129 295.832C181.232 295.735 181.329 295.632 181.427 295.529C188.909 288.003 193.414 278.024 194.111 267.435C194.808 256.846 191.648 246.363 185.217 237.922C185.778 237.756 186.345 237.618 186.917 237.492C188.529 239.701 189.945 242.046 191.148 244.5V244.5Z" fill="white"/>
<path d="M242.675 250.849C242.216 255.701 241.051 260.459 239.217 264.973C238.221 267.35 237.006 269.629 235.587 271.781C234.935 272.788 234.23 273.773 233.492 274.723C231.86 275.828 230.207 276.893 228.534 277.918C229.611 276.836 230.63 275.697 231.585 274.506C232.118 273.865 232.622 273.206 233.108 272.536C238.553 265.031 240.952 255.996 241.364 246.819C241.799 236.989 240.522 226.987 238.278 217.431C235.991 207.631 232.51 198.148 227.915 189.195C227.813 188.992 227.792 188.757 227.859 188.54C227.925 188.322 228.072 188.138 228.27 188.027C228.435 187.917 228.637 187.876 228.831 187.912C228.927 187.936 229.016 187.983 229.09 188.047C229.165 188.112 229.223 188.193 229.261 188.284C229.828 189.389 230.389 190.494 230.921 191.616C235.379 200.937 238.659 210.776 240.688 220.907C242.658 230.679 243.711 240.899 242.675 250.849Z" fill="white"/>
<path d="M106.535 293.616C106.742 293.256 106.948 292.895 107.148 292.534C110.967 285.824 114.556 278.863 115.524 271.248C116.606 262.706 113.566 253.036 106.049 248.84C105.063 248.29 104.018 247.852 102.934 247.534C102.488 247.403 102.03 247.288 101.566 247.185C98.747 246.561 95.8125 246.698 93.0641 247.583C90.3157 248.468 87.8525 250.069 85.9276 252.221C84.0027 254.373 82.6856 256.999 82.1116 259.829C81.5376 262.659 81.7274 265.59 82.6615 268.323C76.2893 261.79 77.4802 251.187 79.6786 242.33C81.8771 233.468 84.545 223.609 80.0622 215.657C77.5718 211.22 73.1977 208.471 68.2798 207.366C68.1309 207.338 67.9764 207.303 67.8275 207.275C61.9707 206.09 55.8824 207.157 50.7779 210.263C41.3828 216.183 36.5565 227.41 34.9878 238.408C34.7416 240.143 34.5699 241.901 34.484 243.664C34.4496 244.282 34.4267 244.895 34.4153 245.513C37.4325 249.16 40.6347 252.678 44.0222 256.065C48.9121 260.957 54.1283 265.511 59.6348 269.697C60.3905 270.269 61.1462 270.83 61.9134 271.386C74.3992 280.508 88.2341 287.622 102.917 292.471C103.724 292.735 104.543 292.998 105.356 293.25L106.535 293.616Z" fill="#F2F2F2"/>
<path d="M105.356 293.25C104.543 292.998 103.725 292.735 102.917 292.471C102.448 291.904 102.001 291.326 101.572 290.731C98.2855 286.233 96.0423 281.06 95.0051 275.588C93.5877 267.86 94.6936 259.881 98.1595 252.83C99.1299 250.854 100.27 248.965 101.566 247.185C102.03 247.288 102.488 247.403 102.935 247.534C98.0996 253.884 95.5542 261.683 95.7122 269.662C95.8702 277.642 98.7222 285.333 103.805 291.487C104.303 292.093 104.818 292.677 105.356 293.25Z" fill="white"/>
<path d="M60.2245 231.04C58.321 238.775 57.485 246.735 57.7398 254.696C57.9025 259.621 58.9416 264.478 60.8084 269.038C61.1461 269.834 61.5126 270.613 61.9135 271.385C61.1461 270.83 60.3905 270.269 59.6346 269.696C59.5776 269.565 59.5203 269.439 59.4688 269.307C59.217 268.7 58.9822 268.088 58.7646 267.469C57.6938 264.388 56.9942 261.19 56.6806 257.943C55.8503 249.927 56.6976 241.706 58.2835 233.834C59.9146 225.679 62.5552 217.759 66.1442 210.258C66.5736 209.353 67.0259 208.466 67.4841 207.578C67.5134 207.504 67.5598 207.438 67.6194 207.385C67.6791 207.333 67.7503 207.295 67.8274 207.275C67.9843 207.248 68.1455 207.281 68.2797 207.366C68.4393 207.457 68.5579 207.606 68.6112 207.782C68.6644 207.957 68.6482 208.147 68.5659 208.311C64.8649 215.517 62.0634 223.151 60.2245 231.04V231.04Z" fill="white"/>
<path d="M101.719 228.935C101.043 229.185 100.313 229.248 99.6052 229.118C98.8972 228.988 98.237 228.67 97.6942 228.198L91.326 222.644C90.5259 221.944 90.0359 220.956 89.9634 219.896C89.891 218.836 90.2421 217.791 90.9397 216.989L137.23 163.912C137.93 163.111 138.918 162.621 139.978 162.549C141.038 162.477 142.083 162.828 142.885 163.525L149.253 169.079C150.053 169.779 150.543 170.767 150.615 171.827C150.688 172.887 150.337 173.932 149.639 174.734L103.349 227.811C102.909 228.317 102.348 228.704 101.719 228.935V228.935Z" fill="white"/>
<path d="M165.34 170.529C164.924 170.529 164.51 170.464 164.113 170.336C163.611 170.178 163.146 169.921 162.743 169.581C162.341 169.242 162.011 168.825 161.77 168.357L157.898 160.847C157.412 159.902 157.321 158.803 157.645 157.791C157.968 156.778 158.68 155.936 159.624 155.448L222.221 123.174C223.166 122.689 224.265 122.597 225.277 122.921C226.29 123.244 227.132 123.956 227.62 124.9L231.492 132.41C231.978 133.355 232.069 134.454 231.746 135.466C231.422 136.479 230.71 137.321 229.767 137.809L167.169 170.083C166.604 170.375 165.977 170.529 165.34 170.529V170.529Z" fill="white"/>
<path d="M164.212 172.346C163.467 172.346 162.737 172.139 162.103 171.748C161.469 171.357 160.956 170.798 160.622 170.133L156.831 162.581C156.403 161.729 156.292 160.753 156.52 159.827C156.545 159.725 156.575 159.623 156.608 159.521C156.685 159.291 156.768 158.931 156.864 158.514C157.172 157.186 157.554 155.533 158.333 155.142L185.839 138.47C186.785 137.988 187.884 137.901 188.895 138.229C189.905 138.557 190.744 139.273 191.226 140.22L191.238 140.243L198.176 154.544C198.651 155.493 198.729 156.593 198.395 157.601C198.06 158.608 197.339 159.442 196.391 159.92L165.978 171.927C165.43 172.203 164.825 172.346 164.212 172.346V172.346Z" fill="#2F2E41"/>
<path d="M152.794 135.281C169.716 135.281 183.435 121.563 183.435 104.641C183.435 87.7182 169.716 73.9999 152.794 73.9999C135.872 73.9999 122.153 87.7182 122.153 104.641C122.153 121.563 135.872 135.281 152.794 135.281Z" fill="white"/>
<path d="M146.821 299.209H138.371C137.308 299.208 136.29 298.785 135.538 298.034C134.787 297.282 134.364 296.264 134.363 295.201V223.628C134.364 222.566 134.787 221.547 135.538 220.796C136.29 220.045 137.308 219.622 138.371 219.621H146.821C147.883 219.622 148.902 220.045 149.653 220.796C150.405 221.547 150.827 222.566 150.828 223.628V295.201C150.827 296.264 150.405 297.282 149.653 298.034C148.902 298.785 147.883 299.208 146.821 299.209Z" fill="white"/>
<path d="M183.229 265.897C182.591 265.899 181.961 265.747 181.393 265.456C180.825 265.164 180.335 264.741 179.964 264.222L139.001 206.932C138.384 206.067 138.135 204.993 138.309 203.945C138.483 202.897 139.066 201.96 139.93 201.341L146.804 196.427C147.669 195.809 148.743 195.561 149.791 195.735C150.84 195.909 151.776 196.492 152.395 197.355L193.358 254.645C193.975 255.51 194.223 256.585 194.049 257.633C193.875 258.681 193.292 259.617 192.428 260.236L185.555 265.151C184.877 265.637 184.063 265.898 183.229 265.897V265.897Z" fill="white"/>
<path d="M172.362 298.145C171.519 298.131 170.691 297.924 169.942 297.54L162.377 293.774C160.399 292.788 159.309 290.944 159.947 289.662L179.443 250.502C180.082 249.22 182.21 248.978 184.189 249.962L191.753 253.729C192.635 254.147 193.385 254.799 193.921 255.614C194.155 255.93 194.301 256.302 194.347 256.692C194.393 257.083 194.336 257.478 194.183 257.84L174.687 297C174.313 297.751 173.428 298.145 172.362 298.145Z" fill="white"/>
<path d="M135.587 194.244C134.873 194.505 134.099 194.558 133.357 194.397C132.614 194.237 131.932 193.869 131.39 193.336L119.926 182.336C119.55 181.967 119.252 181.528 119.046 181.043C118.841 180.559 118.733 180.039 118.729 179.512C118.725 178.986 118.824 178.464 119.021 177.976C119.219 177.489 119.51 177.044 119.879 176.669L119.883 176.666L144.248 155.601C144.843 154.995 146.534 155.141 147.892 155.258C148.318 155.294 148.686 155.326 148.93 155.324C149.036 155.323 149.143 155.327 149.248 155.335C150.198 155.403 151.094 155.808 151.772 156.478L157.789 162.41C158.545 163.157 158.974 164.173 158.981 165.236C158.989 166.298 158.575 167.321 157.829 168.078L137.074 193.277C136.656 193.706 136.148 194.036 135.587 194.244Z" fill="#2F2E41"/>
<path d="M148.715 115.997L148.683 114.852C150.813 114.793 152.691 114.659 154.102 113.628C154.503 113.319 154.831 112.928 155.067 112.48C155.302 112.033 155.438 111.54 155.466 111.036C155.491 110.727 155.444 110.417 155.329 110.13C155.215 109.843 155.036 109.585 154.806 109.378C153.869 108.587 152.362 108.843 151.263 109.347L150.316 109.782L152.132 96.5046L153.267 96.6601L151.722 107.954C153.214 107.515 154.598 107.704 155.545 108.504C155.909 108.822 156.194 109.219 156.379 109.665C156.564 110.111 156.643 110.594 156.61 111.076C156.577 111.754 156.395 112.417 156.079 113.017C155.762 113.618 155.318 114.142 154.778 114.553C152.965 115.878 150.608 115.944 148.715 115.997Z" fill="#2F2E41"/>
<path d="M165.044 97.634H158.877V98.7791H165.044V97.634Z" fill="#2F2E41"/>
<path d="M145.578 97.634H139.412V98.7791H145.578V97.634Z" fill="#2F2E41"/>
<path d="M200.757 232.235H105.444C104.79 232.237 104.146 232.067 103.579 231.741C103.012 231.415 102.541 230.945 102.214 230.378C101.887 229.812 101.715 229.169 101.717 228.515C101.718 227.861 101.892 227.218 102.221 226.653L149.878 144.109C150.201 143.541 150.671 143.069 151.237 142.742C151.803 142.415 152.447 142.244 153.101 142.248C153.755 142.244 154.398 142.415 154.964 142.742C155.531 143.069 156 143.541 156.324 144.109L203.98 226.653C204.307 227.219 204.479 227.86 204.479 228.514C204.479 229.167 204.307 229.809 203.98 230.374C203.654 230.94 203.184 231.41 202.618 231.736C202.052 232.063 201.411 232.235 200.757 232.235V232.235Z" fill="#2F2E41"/>
<path d="M155.109 73.6229C151.712 60.0031 138.541 49.5456 124.429 49.8058C117.442 50.0018 110.705 52.4448 105.216 56.7722C102.449 58.9257 100.067 61.5321 98.1705 64.4809C96.0436 67.8004 94.7081 71.5475 93.6654 75.3296C91.5585 82.9714 90.5656 91.6188 85.2191 97.8595C83.0022 100.386 80.2687 102.407 77.2036 103.786C74.1384 105.164 70.813 105.869 67.4519 105.853C64.0657 105.8 60.7377 104.964 57.7286 103.41C54.7194 101.856 52.1109 99.6267 50.1073 96.8964C46.0829 91.5309 44.1016 84.1104 46.4266 77.635C47.5675 74.4573 50.0207 71.4557 53.5295 70.9259C55.1296 70.7093 56.7582 70.9654 58.2147 71.6625C59.6712 72.3597 60.892 73.4675 61.7269 74.8497C63.3048 77.6184 62.8002 81.3127 60.8233 83.7549C58.7412 86.3271 55.2616 87.0394 52.1926 86.0059C50.7501 85.5156 49.4817 84.6157 48.5423 83.4162C47.8561 82.5496 46.6397 83.7646 47.3189 84.6224C48.4074 85.9278 49.8129 86.9319 51.4007 87.5385C52.9885 88.1452 54.7054 88.334 56.3871 88.087C58.0652 87.8331 59.6414 87.1233 60.9438 86.035C62.2462 84.9467 63.2247 83.5217 63.7728 81.9154C64.3736 80.3228 64.5312 78.597 64.2288 76.9219C63.9265 75.2468 63.1755 73.6851 62.0558 72.403C60.8891 71.1344 59.4164 70.1864 57.7785 69.6498C56.1406 69.1132 54.3924 69.0059 52.7012 69.3383C49.0782 70.1054 46.4472 73.0851 45.0817 76.3869C43.7362 79.8172 43.3813 83.5563 44.0572 87.1785C44.681 90.6738 46.034 93.9985 48.028 96.9362C50.022 99.8739 52.6124 102.359 55.6305 104.229C61.7384 107.979 69.3622 108.495 76.0629 106.086C79.411 104.902 82.4689 103.019 85.0335 100.562C87.7895 97.7663 89.8988 94.4 91.2127 90.7005C94.2338 82.7904 94.6764 73.9391 98.951 66.5038C102.68 60.1904 108.561 55.4344 115.514 53.1093C122.427 50.7208 129.994 51.0841 136.647 54.1237C143.262 57.1872 148.59 62.4774 151.7 69.0702C152.441 70.6766 153.027 72.3499 153.45 74.0676C153.718 75.142 155.377 74.6962 155.109 73.6229L155.109 73.6229Z" fill="#2F2E41"/>
<path d="M159.82 150.286H147.225C146.238 150.285 145.292 149.893 144.594 149.195C143.897 148.497 143.504 147.552 143.503 146.565V145.42C143.504 144.433 143.897 143.487 144.594 142.79C145.292 142.092 146.238 141.7 147.225 141.698H159.82C160.807 141.7 161.752 142.092 162.45 142.79C163.148 143.487 163.54 144.433 163.541 145.42V146.565C163.54 147.552 163.148 148.497 162.45 149.195C161.752 149.893 160.807 150.285 159.82 150.286V150.286Z" fill="#2F2E41"/>
<path d="M93.4078 239.313C95.3049 239.313 96.8429 237.775 96.8429 235.878C96.8429 233.981 95.3049 232.443 93.4078 232.443C91.5106 232.443 89.9727 233.981 89.9727 235.878C89.9727 237.775 91.5106 239.313 93.4078 239.313Z" fill="#E6E6E6"/>
<path d="M259.438 184.351C261.335 184.351 262.873 182.813 262.873 180.916C262.873 179.019 261.335 177.481 259.438 177.481C257.541 177.481 256.003 179.019 256.003 180.916C256.003 182.813 257.541 184.351 259.438 184.351Z" fill="#F2F2F2"/>
<path d="M44.171 199.237C46.0681 199.237 47.6061 197.699 47.6061 195.801C47.6061 193.904 46.0681 192.366 44.171 192.366C42.2738 192.366 40.7358 193.904 40.7358 195.801C40.7358 197.699 42.2738 199.237 44.171 199.237Z" fill="#F2F2F2"/>
<path d="M300.087 150C300.192 182.367 289.731 213.884 270.293 239.765C260.067 253.393 247.627 265.21 233.492 274.723C231.86 275.828 230.207 276.893 228.534 277.918C216.006 285.64 202.396 291.45 188.154 295.156C187.404 295.351 186.654 295.54 185.904 295.723C185.366 295.855 184.822 295.987 184.278 296.101C183.396 296.313 182.515 296.508 181.627 296.697H181.622C171.255 298.901 160.685 300.008 150.087 300C148.713 300 147.341 299.981 145.971 299.943C143.011 299.868 140.066 299.704 137.137 299.45C126.761 298.575 116.506 296.619 106.536 293.616C106.141 293.496 105.751 293.376 105.356 293.25C104.543 292.998 103.725 292.735 102.917 292.471C88.2342 287.622 74.3994 280.507 61.9136 271.385C61.1463 270.83 60.3906 270.269 59.6347 269.697C54.1284 265.511 48.9123 260.957 44.0224 256.065C40.6328 252.676 37.4305 249.158 34.4154 245.513C23.1634 231.971 14.4088 216.536 8.56033 199.929C-18.9691 121.746 22.0941 36.0488 100.277 8.51942C116.28 2.88478 133.122 0.00415222 150.087 0C172.73 0 196.181 5.75954 217.902 16.666L217.387 17.6851C195.826 6.8645 172.553 1.14504 150.087 1.14504C68.0109 1.14504 1.2322 67.9237 1.2322 150C1.19925 184.119 12.9447 217.204 34.4841 243.664C41.6487 252.494 49.7946 260.481 58.7648 267.469C59.4401 267.996 60.1214 268.519 60.8086 269.038C73.1823 278.35 86.9362 285.669 101.572 290.731C102.31 290.989 103.055 291.24 103.805 291.487C104.91 291.847 106.026 292.202 107.148 292.534C117.161 295.56 127.467 297.512 137.893 298.357C140.824 298.597 143.776 298.75 146.749 298.815C147.86 298.843 148.971 298.855 150.087 298.855C160.479 298.862 170.843 297.778 181.009 295.62C181.146 295.592 181.289 295.563 181.427 295.529C182.377 295.328 183.322 295.114 184.261 294.887C185.36 294.635 186.448 294.361 187.536 294.08C203.19 290.006 218.07 283.393 231.585 274.506C232.936 273.624 234.27 272.716 235.587 271.781C264.438 251.548 285.173 221.735 294.101 187.647C303.029 153.559 299.571 117.409 284.343 85.6317L285.379 85.1393C295.117 105.371 300.145 127.546 300.087 150V150Z" fill="#E6E6E6"/>
<path d="M297.145 86.5762C282.711 86.5762 269.553 83.0723 258.037 76.1615C245.858 68.8557 220.74 73.0845 218.856 76.8123L216.546 82.3745L223.056 17.9725L223.301 17.7444C223.836 17.2317 236.882 5.31003 271.061 22.0769C297.003 34.7995 318.209 28.8034 326.122 25.635C326.527 25.4717 326.967 25.4139 327.4 25.467C327.833 25.5201 328.246 25.6824 328.599 25.9386C328.952 26.1948 329.235 26.5366 329.42 26.9319C329.605 27.3272 329.687 27.763 329.657 28.1985L326.079 80.0923C326.046 80.6064 325.859 81.0986 325.541 81.5043C325.224 81.9101 324.792 82.2105 324.301 82.3661C315.511 85.1247 306.357 86.5439 297.145 86.5762Z" fill="white"/>
<path d="M220.467 15.8608C219.418 15.862 218.413 16.2792 217.671 17.0209C216.93 17.7626 216.512 18.7682 216.511 19.817V153.095C216.511 154.145 216.928 155.151 217.67 155.893C218.412 156.635 219.418 157.052 220.467 157.052C221.517 157.052 222.523 156.635 223.265 155.893C224.007 155.151 224.424 154.145 224.424 153.095V19.817C224.422 18.7682 224.005 17.7626 223.263 17.0209C222.522 16.2792 221.516 15.862 220.467 15.8608Z" fill="#3F3D56"/>
</g>
<defs>
<clipPath id="clip0">
<rect width="329.663" height="300" fill="white"/>
</clipPath>
</defs>
</svg>
