<svg width="250" height="250" viewBox="0 0 250 250" fill="none" xmlns="http://www.w3.org/2000/svg">
<g opacity="0.5">
<path opacity="0.5" d="M125 250C194.036 250 250 194.036 250 125C250 55.9644 194.036 0 125 0C55.9644 0 0 55.9644 0 125C0 194.036 55.9644 250 125 250Z" fill="url(#paint0_linear)"/>
</g>
<path d="M125.244 246.565C192.823 246.565 247.607 191.781 247.607 124.201C247.607 56.6215 192.823 1.83734 125.244 1.83734C57.6638 1.83734 2.87964 56.6215 2.87964 124.201C2.87964 191.781 57.6638 246.565 125.244 246.565Z" fill="#F5F5F5"/>
<path d="M125.358 247.049C149.268 247.087 172.66 240.087 192.618 226.92C188.109 202.278 170.949 200.874 170.949 200.874H76.3215C76.3215 200.874 60.1288 202.203 55.0715 224.871C75.6479 239.345 100.201 247.092 125.358 247.049V247.049Z" fill="#1F99D3"/>
<path d="M124.058 180.684C156.677 180.684 183.12 154.241 183.12 121.622C183.12 89.0036 156.677 62.5609 124.058 62.5609C91.4391 62.5609 64.9963 89.0036 64.9963 121.622C64.9963 154.241 91.4391 180.684 124.058 180.684Z" fill="#333333"/>
<path opacity="0.1" d="M104.996 170.817H142.84V201.092C142.84 206.109 140.848 210.921 137.301 214.47C133.754 218.018 128.943 220.012 123.925 220.014V220.014C118.907 220.014 114.094 218.021 110.546 214.472C106.997 210.924 105.004 206.111 105.004 201.092V170.817H104.996Z" fill="black"/>
<path d="M106.196 169.413H141.655C141.973 169.413 142.278 169.539 142.503 169.764C142.728 169.989 142.855 170.294 142.855 170.612V199.688C142.855 202.174 142.366 204.636 141.415 206.932C140.464 209.229 139.069 211.316 137.311 213.073C135.553 214.831 133.466 216.225 131.17 217.175C128.873 218.126 126.411 218.615 123.926 218.614V218.614C118.907 218.614 114.094 216.62 110.546 213.072C106.997 209.523 105.004 204.71 105.004 199.692V170.612C105.004 170.295 105.129 169.991 105.353 169.767C105.576 169.542 105.879 169.414 106.196 169.413V169.413Z" fill="#FDB797"/>
<path opacity="0.1" d="M105.064 185.107C117.261 189.664 130.686 189.701 142.908 185.211V180.555H105.064V185.107Z" fill="black"/>
<path d="M124.058 187.64C154.016 187.64 178.302 163.354 178.302 133.395C178.302 103.437 154.016 79.1511 124.058 79.1511C94.0997 79.1511 69.8137 103.437 69.8137 133.395C69.8137 163.354 94.0997 187.64 124.058 187.64Z" fill="#FDB797"/>
<path opacity="0.1" d="M85.4192 84.0545C85.4192 84.0545 108.281 130.459 172.769 103.51L157.754 79.9678L131.139 70.4155L85.4192 84.0545Z" fill="black"/>
<path d="M85.4192 83.3739C85.4192 83.3739 108.281 129.778 172.769 102.822L157.754 79.2801L131.139 69.7278L85.4192 83.3739Z" fill="#333333"/>
<path d="M85.2186 80.2292C86.7601 75.4574 89.4242 71.1253 92.9872 67.5967C103.657 57.0487 121.15 54.8245 130.122 42.7972C132.271 46.1353 130.609 51.2679 126.898 52.7005C135.494 52.6432 145.455 51.8911 150.315 44.8209C151.516 47.6172 151.899 50.697 151.419 53.7022C150.939 56.7075 149.616 59.5149 147.604 61.798C155.222 62.1561 163.363 67.3137 163.843 74.9247C164.173 79.9964 160.978 84.7958 156.827 87.7041C152.676 90.6124 147.618 91.9484 142.658 93.0408C128.173 96.2392 75.7666 109.624 85.2186 80.2292Z" fill="#333333"/>
<path d="M69.7922 142.808C72.5793 142.808 74.8387 138.571 74.8387 133.345C74.8387 128.119 72.5793 123.882 69.7922 123.882C67.005 123.882 64.7456 128.119 64.7456 133.345C64.7456 138.571 67.005 142.808 69.7922 142.808Z" fill="#FDB797"/>
<path d="M178.295 142.808C181.082 142.808 183.342 138.571 183.342 133.345C183.342 128.119 181.082 123.882 178.295 123.882C175.508 123.882 173.249 128.119 173.249 133.345C173.249 138.571 175.508 142.808 178.295 142.808Z" fill="#FDB797"/>
<defs>
<linearGradient id="paint0_linear" x1="125" y1="250" x2="125" y2="0" gradientUnits="userSpaceOnUse">
<stop stop-color="#808080" stop-opacity="0.25"/>
<stop offset="0.54" stop-color="#808080" stop-opacity="0.12"/>
<stop offset="1" stop-color="#808080" stop-opacity="0.1"/>
</linearGradient>
</defs>
</svg>
