<svg width="250" height="151" viewBox="0 0 250 151" fill="none" xmlns="http://www.w3.org/2000/svg">
<g clip-path="url(#clip0)">
<path d="M250 117.46C250.005 118.468 249.61 119.437 248.901 120.153C248.192 120.87 247.227 121.275 246.219 121.281H79.8528C79.3537 121.278 78.8599 121.177 78.3998 120.984C77.9396 120.79 77.522 120.508 77.1709 120.153C76.8198 119.799 76.542 119.378 76.3534 118.916C76.1647 118.454 76.069 117.959 76.0716 117.46V3.82092C76.0663 2.81282 76.4617 1.84392 77.1708 1.12736C77.8799 0.410796 78.8446 0.00527191 79.8527 0H246.219C246.718 0.00259646 247.212 0.103485 247.672 0.296904C248.132 0.490324 248.55 0.772486 248.901 1.12728C249.252 1.48208 249.53 1.90256 249.718 2.36472C249.907 2.82687 250.003 3.32166 250 3.82082V3.82092V117.46Z" fill="#E6E6E6"/>
<path d="M248.037 115.599C248.037 116.578 247.648 117.518 246.955 118.211C246.262 118.904 245.323 119.293 244.343 119.293H81.8425C80.8626 119.293 79.9229 118.904 79.2301 118.211C78.5372 117.518 78.1479 116.578 78.1479 115.599V5.73372C78.1479 4.75387 78.5372 3.81415 79.2301 3.12129C79.9229 2.42843 80.8626 2.03918 81.8425 2.03918H244.35C245.329 2.04115 246.267 2.43127 246.958 3.12391C247.649 3.81656 248.037 4.75516 248.037 5.73372V115.599Z" fill="white"/>
<path d="M86.8331 6.80927H239.526C240.108 6.80927 240.665 7.04031 241.077 7.45156C241.488 7.86282 241.719 8.4206 241.719 9.0022V111.904C241.719 112.486 241.488 113.044 241.077 113.455C240.665 113.866 240.108 114.097 239.526 114.097H86.8331C86.2515 114.097 85.6937 113.866 85.2824 113.455C84.8712 113.044 84.6401 112.486 84.6401 111.904V9.0022C84.6401 8.4206 84.8712 7.86282 85.2824 7.45156C85.6937 7.04031 86.2515 6.80927 86.8331 6.80927V6.80927Z" fill="#E6E6E6"/>
<path d="M88.7654 9.27722H237.427C238.008 9.27722 238.566 9.50826 238.977 9.91952C239.389 10.3308 239.62 10.8886 239.62 11.4702V108.881C239.62 109.463 239.389 110.021 238.977 110.432C238.566 110.843 238.008 111.074 237.427 111.074H88.7654C88.1838 111.074 87.6261 110.843 87.2148 110.432C86.8036 110.021 86.5725 109.463 86.5725 108.881V11.4702C86.5725 10.8886 86.8036 10.3308 87.2148 9.91952C87.6261 9.50826 88.1838 9.27722 88.7654 9.27722V9.27722Z" fill="white"/>
<path d="M193.731 76.9467C193.146 76.9463 192.567 76.823 192.033 76.5849C191.908 76.5297 191.79 76.4623 191.679 76.3837L180.875 68.7787C180.327 68.393 179.88 67.8812 179.571 67.2865C179.262 66.6918 179.101 66.0316 179.101 65.3615V54.9898C179.101 54.3197 179.262 53.6595 179.571 53.0648C179.88 52.4701 180.327 51.9583 180.875 51.5726L191.679 43.9676C191.79 43.889 191.908 43.8216 192.033 43.7664C192.669 43.4835 193.366 43.364 194.06 43.419C194.755 43.4739 195.424 43.7014 196.008 44.0809C196.592 44.4604 197.072 44.9798 197.405 45.5919C197.737 46.204 197.911 46.8895 197.911 47.5859V72.7654C197.911 73.874 197.47 74.9372 196.687 75.7211C195.903 76.505 194.839 76.9454 193.731 76.9454L193.731 76.9467Z" fill="#3F3D56"/>
<path d="M169.551 78.9858H139.418C133.27 78.9807 128.288 75.0068 128.282 70.1032V50.2481C128.288 45.3445 133.27 41.3706 139.418 41.3655H169.63C175.734 41.3713 180.68 45.3167 180.687 50.1854V70.1032C180.681 75.0068 175.699 78.9807 169.551 78.9858Z" fill="#3F3D56"/>
<path d="M223.228 104.81C228.178 104.81 232.19 100.798 232.19 95.8485C232.19 90.899 228.178 86.8866 223.228 86.8866C218.279 86.8866 214.267 90.899 214.267 95.8485C214.267 100.798 218.279 104.81 223.228 104.81Z" fill="#E6E6E6"/>
<path d="M227.883 95.6878L220.74 91.5634C220.711 91.5472 220.679 91.5386 220.647 91.5386C220.614 91.5386 220.582 91.5472 220.554 91.5634C220.526 91.5797 220.503 91.6031 220.486 91.6313C220.47 91.6595 220.461 91.6915 220.461 91.7241V99.9728C220.461 100.005 220.47 100.037 220.486 100.066C220.503 100.094 220.526 100.117 220.554 100.133C220.582 100.15 220.614 100.158 220.647 100.158C220.679 100.158 220.711 100.15 220.74 100.133L227.883 96.0091C227.911 95.9928 227.935 95.9694 227.951 95.9412C227.967 95.913 227.976 95.881 227.976 95.8484C227.976 95.8159 227.967 95.7839 227.951 95.7557C227.935 95.7275 227.911 95.7041 227.883 95.6878L220.74 91.5634C220.711 91.5472 220.679 91.5386 220.647 91.5386C220.614 91.5386 220.582 91.5472 220.554 91.5634C220.526 91.5797 220.503 91.6031 220.486 91.6313C220.47 91.6595 220.461 91.6915 220.461 91.7241V99.9728C220.461 100.005 220.47 100.037 220.486 100.066C220.503 100.094 220.526 100.117 220.554 100.133C220.582 100.15 220.614 100.158 220.647 100.158C220.679 100.158 220.711 100.15 220.74 100.133L227.883 96.0091C227.911 95.9928 227.935 95.9694 227.951 95.9412C227.967 95.913 227.976 95.881 227.976 95.8484C227.976 95.8159 227.967 95.7839 227.951 95.7557C227.935 95.7275 227.911 95.7041 227.883 95.6878V95.6878Z" fill="white"/>
<path d="M211.593 131.088C211.598 132.096 211.203 133.065 210.493 133.782C209.784 134.498 208.82 134.904 207.812 134.909H41.4455C40.9463 134.906 40.4526 134.805 39.9924 134.612C39.5322 134.419 39.1147 134.136 38.7636 133.782C38.4124 133.427 38.1346 133.006 37.946 132.544C37.7574 132.082 37.6616 131.587 37.6642 131.088V17.4493C37.659 16.4412 38.0544 15.4723 38.7635 14.7558C39.4726 14.0392 40.4373 13.6337 41.4454 13.6284H207.811C208.311 13.631 208.804 13.7319 209.265 13.9253C209.725 14.1187 210.142 14.4009 210.493 14.7557C210.845 15.1105 211.122 15.531 211.311 15.9931C211.5 16.4553 211.595 16.9501 211.593 17.4492V17.4493V131.088Z" fill="#E6E6E6"/>
<path d="M209.63 129.227C209.63 130.207 209.241 131.147 208.548 131.84C207.855 132.533 206.915 132.922 205.936 132.922H43.4351C42.4553 132.922 41.5156 132.533 40.8227 131.84C40.1298 131.147 39.7406 130.207 39.7406 129.227V19.3623C39.7406 18.3824 40.1298 17.4427 40.8227 16.7498C41.5156 16.057 42.4553 15.6677 43.4351 15.6677H205.943C206.922 15.6697 207.859 16.0598 208.551 16.7525C209.242 17.4451 209.63 18.3837 209.63 19.3623V129.227Z" fill="white"/>
<path d="M48.4256 20.4377H201.118C201.7 20.4377 202.258 20.6688 202.669 21.08C203.08 21.4913 203.311 22.0491 203.311 22.6307V125.533C203.311 126.114 203.08 126.672 202.669 127.083C202.258 127.495 201.7 127.726 201.118 127.726H48.4256C47.844 127.726 47.2862 127.495 46.875 127.083C46.4637 126.672 46.2327 126.114 46.2327 125.533V22.6307C46.2327 22.0491 46.4637 21.4913 46.875 21.08C47.2862 20.6688 47.844 20.4377 48.4256 20.4377Z" fill="#E6E6E6"/>
<path d="M50.3582 22.9057H199.02C199.601 22.9057 200.159 23.1367 200.57 23.548C200.982 23.9593 201.213 24.517 201.213 25.0986V122.51C201.213 123.091 200.982 123.649 200.57 124.06C200.159 124.472 199.601 124.703 199.02 124.703H50.3582C49.7766 124.703 49.2188 124.472 48.8076 124.06C48.3963 123.649 48.1653 123.091 48.1653 122.51V25.0986C48.1653 24.517 48.3963 23.9593 48.8076 23.548C49.2188 23.1367 49.7766 22.9057 50.3582 22.9057V22.9057Z" fill="white"/>
<path d="M155.324 90.5752C154.738 90.5747 154.16 90.4515 153.625 90.2133C153.501 90.1581 153.382 90.0907 153.271 90.0122L142.467 82.4071C141.919 82.0214 141.472 81.5096 141.163 80.9149C140.855 80.3202 140.694 79.66 140.693 78.9899V68.6182C140.694 67.9481 140.855 67.2879 141.163 66.6932C141.472 66.0985 141.919 65.5867 142.467 65.201L153.271 57.5959C153.382 57.5174 153.501 57.45 153.625 57.3948C154.262 57.1118 154.959 56.9924 155.653 57.0473C156.347 57.1022 157.017 57.3298 157.601 57.7093C158.185 58.0887 158.665 58.6081 158.997 59.2203C159.329 59.8324 159.504 60.5178 159.504 61.2143V86.3938C159.504 87.5024 159.063 88.5656 158.279 89.3496C157.495 90.1335 156.432 90.5739 155.323 90.5739L155.324 90.5752Z" fill="#3F3D56"/>
<path d="M131.144 92.6142H101.011C94.8631 92.6092 89.8809 88.6353 89.8746 83.7316V63.8765C89.881 58.9729 94.8631 54.9989 101.011 54.9939H131.223C137.326 54.9997 142.273 58.9451 142.28 63.8138V83.7316C142.274 88.6353 137.292 92.6092 131.144 92.6142Z" fill="#3F3D56"/>
<path d="M184.821 118.439C189.771 118.439 193.783 114.426 193.783 109.477C193.783 104.527 189.771 100.515 184.821 100.515C179.872 100.515 175.859 104.527 175.859 109.477C175.859 114.426 179.872 118.439 184.821 118.439Z" fill="#E6E6E6"/>
<path d="M189.476 109.316L182.332 105.192C182.304 105.176 182.272 105.167 182.24 105.167C182.207 105.167 182.175 105.176 182.147 105.192C182.119 105.208 182.095 105.232 182.079 105.26C182.063 105.288 182.054 105.32 182.054 105.352V113.601C182.054 113.634 182.063 113.666 182.079 113.694C182.095 113.722 182.119 113.745 182.147 113.762C182.175 113.778 182.207 113.787 182.24 113.787C182.272 113.787 182.304 113.778 182.332 113.762L189.476 109.637C189.504 109.621 189.528 109.598 189.544 109.57C189.56 109.541 189.569 109.509 189.569 109.477C189.569 109.444 189.56 109.412 189.544 109.384C189.528 109.356 189.504 109.332 189.476 109.316L182.332 105.192C182.304 105.176 182.272 105.167 182.24 105.167C182.207 105.167 182.175 105.176 182.147 105.192C182.119 105.208 182.095 105.232 182.079 105.26C182.063 105.288 182.054 105.32 182.054 105.352V113.601C182.054 113.634 182.063 113.666 182.079 113.694C182.095 113.722 182.119 113.745 182.147 113.762C182.175 113.778 182.207 113.787 182.24 113.787C182.272 113.787 182.304 113.778 182.332 113.762L189.476 109.637C189.504 109.621 189.528 109.598 189.544 109.57C189.56 109.541 189.569 109.509 189.569 109.477C189.569 109.444 189.56 109.412 189.544 109.384C189.528 109.356 189.504 109.332 189.476 109.316Z" fill="white"/>
<path d="M173.929 146.699C173.934 147.707 173.538 148.676 172.829 149.393C172.12 150.109 171.155 150.515 170.147 150.52H3.78132C3.28216 150.517 2.7884 150.416 2.32823 150.223C1.86806 150.03 1.45049 149.747 1.09937 149.393C0.748243 149.038 0.47044 148.617 0.281819 148.155C0.0931985 147.693 -0.00254557 147.198 5.20345e-05 146.699V33.0601C-0.00521918 32.052 0.39019 31.0831 1.0993 30.3666C1.8084 29.65 2.77312 29.2445 3.78121 29.2392H170.147C170.646 29.2418 171.14 29.3427 171.6 29.5361C172.061 29.7295 172.478 30.0117 172.829 30.3665C173.18 30.7213 173.458 31.1418 173.647 31.6039C173.835 32.0661 173.931 32.5609 173.929 33.06V33.0601V146.699Z" fill="#E6E6E6"/>
<path d="M171.966 144.838C171.966 145.818 171.577 146.757 170.884 147.45C170.191 148.143 169.251 148.532 168.271 148.532H5.77096C4.79111 148.532 3.85138 148.143 3.15852 147.45C2.46566 146.757 2.07642 145.818 2.07642 144.838V34.9729C2.07642 33.9931 2.46566 33.0533 3.15852 32.3605C3.85138 31.6676 4.79111 31.2784 5.77096 31.2784H168.279C169.257 31.2804 170.195 31.6705 170.886 32.3631C171.578 33.0558 171.966 33.9944 171.966 34.9729V144.838Z" fill="white"/>
<path d="M10.7617 36.0485H163.455C164.036 36.0485 164.594 36.2795 165.005 36.6908C165.416 37.102 165.648 37.6598 165.648 38.2414V141.143C165.648 141.725 165.416 142.283 165.005 142.694C164.594 143.105 164.036 143.336 163.455 143.336H10.7617C10.1801 143.336 9.62228 143.105 9.21102 142.694C8.79977 142.283 8.56873 141.725 8.56873 141.143V38.2414C8.56873 37.6598 8.79977 37.102 9.21102 36.6908C9.62228 36.2795 10.1801 36.0485 10.7617 36.0485V36.0485Z" fill="#E6E6E6"/>
<path d="M12.6943 38.5164H161.356C161.644 38.5164 161.929 38.5731 162.195 38.6833C162.461 38.7935 162.703 38.955 162.906 39.1587C163.11 39.3623 163.271 39.604 163.382 39.8701C163.492 40.1362 163.549 40.4213 163.549 40.7093V138.12C163.549 138.408 163.492 138.694 163.382 138.96C163.271 139.226 163.11 139.467 162.906 139.671C162.703 139.875 162.461 140.036 162.195 140.146C161.929 140.257 161.644 140.313 161.356 140.313H12.6943C12.1127 140.313 11.5549 140.082 11.1436 139.671C10.7324 139.26 10.5013 138.702 10.5013 138.12V40.7093C10.5013 40.1277 10.7324 39.5699 11.1436 39.1587C11.5549 38.7474 12.1127 38.5164 12.6943 38.5164V38.5164Z" fill="white"/>
<path d="M117.659 106.186C117.074 106.186 116.496 106.062 115.961 105.824C115.837 105.769 115.718 105.702 115.607 105.623L104.803 98.0179C104.255 97.6322 103.808 97.1205 103.499 96.5258C103.191 95.931 103.029 95.2708 103.029 94.6008V84.229C103.029 83.559 103.191 82.8988 103.499 82.304C103.808 81.7093 104.255 81.1976 104.803 80.8119L115.607 73.2068C115.718 73.1282 115.837 73.0608 115.961 73.0056C116.598 72.7227 117.295 72.6032 117.989 72.6582C118.683 72.7131 119.353 72.9406 119.937 73.3201C120.521 73.6996 121.001 74.219 121.333 74.8311C121.665 75.4432 121.839 76.1287 121.839 76.8251V102.005C121.839 103.113 121.399 104.176 120.615 104.96C119.831 105.744 118.768 106.185 117.659 106.185L117.659 106.186Z" fill="#1F99D3"/>
<path d="M93.48 108.225H63.3469C57.1991 108.22 52.217 104.246 52.2107 99.3423V79.4871C52.217 74.5835 57.1991 70.6096 63.3469 70.6046H93.5586C99.6625 70.6103 104.609 74.5557 104.616 79.4244V99.3423C104.61 104.246 99.6277 108.22 93.48 108.225Z" fill="#1F99D3"/>
<path d="M147.157 134.049C152.107 134.049 156.119 130.037 156.119 125.088C156.119 120.138 152.107 116.126 147.157 116.126C142.208 116.126 138.195 120.138 138.195 125.088C138.195 130.037 142.208 134.049 147.157 134.049Z" fill="#3F3D56"/>
<path d="M151.812 124.927L144.668 120.803C144.64 120.786 144.608 120.778 144.576 120.778C144.543 120.778 144.511 120.786 144.483 120.803C144.455 120.819 144.431 120.842 144.415 120.87C144.399 120.899 144.39 120.931 144.39 120.963V129.212C144.39 129.244 144.399 129.276 144.415 129.305C144.431 129.333 144.455 129.356 144.483 129.372C144.511 129.389 144.543 129.397 144.576 129.397C144.608 129.397 144.64 129.389 144.668 129.372L151.812 125.248C151.84 125.232 151.864 125.208 151.88 125.18C151.896 125.152 151.905 125.12 151.905 125.087C151.905 125.055 151.896 125.023 151.88 124.995C151.864 124.967 151.84 124.943 151.812 124.927L144.668 120.803C144.64 120.786 144.608 120.778 144.576 120.778C144.543 120.778 144.511 120.786 144.483 120.803C144.455 120.819 144.431 120.842 144.415 120.87C144.399 120.899 144.39 120.931 144.39 120.963V129.212C144.39 129.244 144.399 129.276 144.415 129.305C144.431 129.333 144.455 129.356 144.483 129.372C144.511 129.389 144.543 129.397 144.576 129.397C144.608 129.397 144.64 129.389 144.668 129.372L151.812 125.248C151.84 125.232 151.864 125.208 151.88 125.18C151.896 125.152 151.905 125.12 151.905 125.087C151.905 125.055 151.896 125.023 151.88 124.995C151.864 124.967 151.84 124.943 151.812 124.927V124.927Z" fill="white"/>
</g>
<defs>
<clipPath id="clip0">
<rect width="250" height="150.52" fill="white"/>
</clipPath>
</defs>
</svg>
