<svg width="250" height="128" viewBox="0 0 250 128" fill="none" xmlns="http://www.w3.org/2000/svg">
<g clip-path="url(#clip0)">
<path d="M53.7989 115.419C58.5791 115.419 62.4543 107.512 62.4543 97.7587C62.4543 88.0051 58.5791 80.0983 53.7989 80.0983C49.0187 80.0983 45.1436 88.0051 45.1436 97.7587C45.1436 107.512 49.0187 115.419 53.7989 115.419Z" fill="#E6E6E6"/>
<path d="M54.5983 126.666C51.1317 105.867 54.5634 85.1439 54.5984 84.9371L55.2727 85.0513C55.2378 85.2571 51.8259 105.872 55.2729 126.554L54.5983 126.666Z" fill="#3F3D56"/>
<path d="M61.4193 93.9613L53.5925 98.1478L53.9152 98.751L61.7419 94.5645L61.4193 93.9613Z" fill="#3F3D56"/>
<path d="M45.6548 96.0583L45.332 96.6614L53.1579 100.85L53.4807 100.247L45.6548 96.0583Z" fill="#3F3D56"/>
<path d="M228.362 1.17877H214.176V50.2849H228.362V1.17877Z" fill="#3F3D56"/>
<path d="M237.731 41.047L203.227 0L133.969 0.633254L91.9561 41.5547L92.805 42.1005H92.5019V127.218H237.637V42.1005L237.731 41.047Z" fill="#3F3D56"/>
<path d="M203.263 0.0874634L160.159 50.6226V127.218H237.637V41.0092L203.263 0.0874634Z" fill="#1F99D3"/>
<path d="M207.082 84.8594H191.259V98.8452H207.082V84.8594Z" fill="#3F3D56"/>
<path d="M207.082 60.6516H191.259V74.4156H207.082V60.6516Z" fill="#3F3D56"/>
<path d="M207.082 84.8594H191.259V98.8452H207.082V84.8594Z" fill="white"/>
<path d="M207.082 60.6516H191.259V74.4156H207.082V60.6516Z" fill="white"/>
<path d="M149.414 124.722C149.414 124.722 149.753 117.614 156.707 118.44Z" fill="#E6E6E6"/>
<path d="M147.449 117.958C149.371 117.958 150.929 116.4 150.929 114.478C150.929 112.556 149.371 110.997 147.449 110.997C145.527 110.997 143.969 112.556 143.969 114.478C143.969 116.4 145.527 117.958 147.449 117.958Z" fill="#1F99D3"/>
<path d="M147.865 120.338H146.882V127.215H147.865V120.338Z" fill="#E6E6E6"/>
<path d="M33.0031 105.064C42.3526 105.064 49.9319 89.5992 49.9319 70.5223C49.9319 51.4454 42.3526 35.9806 33.0031 35.9806C23.6535 35.9806 16.0742 51.4454 16.0742 70.5223C16.0742 89.5992 23.6535 105.064 33.0031 105.064Z" fill="#1F99D3"/>
<path d="M34.8881 127.008C28.117 86.3819 34.8198 45.9036 34.8883 45.4995L35.5626 45.6137C35.4943 46.0168 28.8112 86.3862 35.5628 126.896L34.8881 127.008Z" fill="#3F3D56"/>
<path d="M48.0613 63.3829L32.7527 71.5713L33.0753 72.1745L48.3839 63.9861L48.0613 63.3829Z" fill="#3F3D56"/>
<path d="M16.9195 67.4849L16.5967 68.088L31.903 76.2806L32.2258 75.6775L16.9195 67.4849Z" fill="#3F3D56"/>
<path d="M73.0974 97.0001C85.8916 97.0001 96.2632 75.8377 96.2632 49.7325C96.2632 23.6273 85.8916 2.4649 73.0974 2.4649C60.3033 2.4649 49.9316 23.6273 49.9316 49.7325C49.9316 75.8377 60.3033 97.0001 73.0974 97.0001Z" fill="#1F99D3"/>
<path d="M75.8025 127.008C66.5402 71.4349 75.7089 16.0646 75.8026 15.5118L76.4769 15.6261C76.3834 16.1778 67.2344 71.4393 76.4771 126.896L75.8025 127.008Z" fill="#3F3D56"/>
<path d="M93.7635 40.074L72.8149 51.2791L73.1376 51.8822L94.0862 40.6771L93.7635 40.074Z" fill="#3F3D56"/>
<path d="M51.0288 45.6872L50.7061 46.2903L71.6517 57.5008L71.9745 56.8978L51.0288 45.6872Z" fill="#3F3D56"/>
<path d="M250 126.655H0V127.249H250V126.655Z" fill="#3F3D56"/>
<path d="M136.764 81.1484H120.94V95.1342H136.764V81.1484Z" fill="#3F3D56"/>
<path d="M136.764 56.9407H120.94V70.7047H136.764V56.9407Z" fill="#3F3D56"/>
<path d="M136.764 81.1484H120.94V95.1342H136.764V81.1484Z" fill="white"/>
<path d="M136.764 56.9407H120.94V70.7047H136.764V56.9407Z" fill="white"/>
</g>
<defs>
<clipPath id="clip0">
<rect width="250" height="127.25" fill="white"/>
</clipPath>
</defs>
</svg>
